<?xml version="1.0" standalone="no"?>
<!DOCTYPE svg PUBLIC "-//W3C//DTD SVG 20010904//EN"
 "http://www.w3.org/TR/2001/REC-SVG-20010904/DTD/svg10.dtd">
<svg version="1.0" xmlns="http://www.w3.org/2000/svg"
 width="271.000000pt" height="271.000000pt" viewBox="0 0 271.000000 271.000000"
 preserveAspectRatio="xMidYMid meet">
<metadata>
Created by potrace 1.14, written by Peter Selinger 2001-2017
</metadata>
<g transform="translate(0.000000,271.000000) scale(0.100000,-0.100000)"
fill="#000000" stroke="none">
<path d="M1275 2650 c3 -5 0 -7 -8 -4 -33 12 -147 -44 -209 -104 -47 -44 -200
-271 -192 -284 4 -6 3 -8 -4 -4 -14 8 -55 -50 -46 -65 4 -8 3 -9 -4 -5 -6 4
-16 -4 -23 -16 -6 -13 -20 -33 -31 -45 -11 -12 -17 -26 -13 -32 3 -6 -1 -11
-10 -11 -9 0 -14 -4 -11 -9 3 -5 -1 -12 -10 -15 -8 -3 -13 -10 -10 -15 3 -5
-1 -12 -10 -15 -9 -4 -14 -13 -10 -22 3 -8 2 -12 -4 -9 -6 3 -13 -2 -17 -12
-4 -10 -9 -20 -12 -23 -19 -17 -59 -79 -54 -84 4 -3 1 -6 -5 -6 -5 0 -20 -16
-33 -36 -12 -20 -64 -97 -115 -171 -52 -74 -91 -139 -88 -144 3 -5 1 -8 -6 -7
-6 2 -18 -10 -28 -27 -9 -16 -23 -36 -30 -43 -7 -8 -11 -21 -8 -29 3 -8 2 -12
-3 -9 -4 3 -16 -3 -26 -14 -10 -11 -14 -20 -10 -20 5 0 1 -6 -10 -13 -12 -9
-15 -19 -10 -28 5 -8 5 -11 0 -7 -8 8 -85 -92 -85 -110 0 -6 -4 -12 -8 -14
-11 -4 -70 -92 -74 -109 -2 -7 -9 -20 -16 -27 -7 -8 -10 -18 -7 -23 4 -5 2 -9
-4 -9 -19 0 -38 -195 -19 -206 4 -3 6 -9 3 -14 -8 -13 21 -96 50 -145 49 -82
140 -156 230 -186 48 -15 50 -17 51 -55 3 -140 84 -273 204 -334 76 -39 130
-41 841 -38 l685 3 67 34 c76 38 134 96 171 168 26 52 45 136 41 178 -2 14 1
25 6 25 6 0 7 5 3 12 -4 7 -3 8 4 4 15 -9 92 14 92 27 0 6 3 7 6 4 16 -16 161
114 149 133 -4 6 -1 9 6 8 29 -7 94 177 78 220 -6 15 -5 21 1 17 7 -4 9 4 6
22 -2 15 -7 47 -11 71 -4 23 -11 42 -16 42 -6 0 -7 5 -4 10 3 6 2 10 -4 10 -6
0 -7 7 -4 17 5 12 3 14 -7 8 -8 -5 -11 -4 -6 3 7 12 -48 105 -58 95 -3 -3 -6
0 -6 8 0 20 -109 175 -122 171 -5 -1 -6 3 -2 9 4 7 -1 18 -10 25 -10 7 -17 15
-17 18 1 11 -34 66 -41 66 -5 0 -8 4 -8 10 0 8 -57 98 -71 110 -3 3 -15 22
-28 43 -13 20 -27 34 -33 31 -7 -4 -8 -2 -4 4 7 13 -51 98 -65 95 -4 -2 -6 4
-3 12 4 8 1 15 -6 15 -6 0 -8 5 -5 10 3 6 -1 13 -9 16 -9 3 -16 11 -16 16 0
18 -41 68 -51 63 -5 -4 -6 0 -4 7 3 8 -4 23 -15 35 -11 12 -20 26 -20 30 -1
17 -77 113 -84 106 -4 -5 -7 -3 -6 2 5 25 2 31 -50 92 -5 7 -10 17 -10 23 0 5
-4 10 -10 10 -5 0 -10 6 -10 13 0 7 -8 22 -17 33 -10 11 -23 29 -30 40 -6 10
-16 18 -22 17 -6 -2 -8 3 -5 10 4 12 -3 24 -46 74 -5 7 -10 15 -10 19 0 6 -59
90 -90 127 -27 32 -111 88 -122 81 -6 -4 -8 -3 -5 4 12 18 -84 44 -181 48 -62
3 -91 1 -87 -6z m-70 -108 c-3 -3 -11 0 -18 7 -9 10 -8 11 6 5 10 -3 15 -9 12
-12z m-640 -960 c-3 -3 -11 0 -18 7 -9 10 -8 11 6 5 10 -3 15 -9 12 -12z m5
-306 c0 -2 -7 -7 -16 -10 -8 -3 -12 -2 -9 4 6 10 25 14 25 6z m-400 -246 c0
-5 -5 -10 -11 -10 -5 0 -7 5 -4 10 3 6 8 10 11 10 2 0 4 -4 4 -10z"/>
</g>
</svg>
